<?xml version="1.0" encoding="UTF-8" standalone="no"?><!DOCTYPE svg PUBLIC "-//W3C//DTD SVG 1.1//EN" "http://www.w3.org/Graphics/SVG/1.1/DTD/svg11.dtd"><svg width="100%" height="100%" viewBox="0 0 2134 2134" version="1.1" xmlns="http://www.w3.org/2000/svg" xmlns:xlink="http://www.w3.org/1999/xlink" xml:space="preserve" xmlns:serif="http://www.serif.com/" style="fill-rule:evenodd;clip-rule:evenodd;stroke-linejoin:round;stroke-miterlimit:2;"><g><g><path d="M1596.13,620.533c-16.271,-16.266 -42.654,-16.266 -58.929,0l-83.333,83.334c-16.271,16.271 -16.271,42.654 -0,58.929c16.279,16.275 42.658,16.271 58.929,-0l83.333,-83.333c16.271,-16.271 16.271,-42.655 0,-58.93Z" style="fill:#f6f6f8;fill-rule:nonzero;"/></g></g><g><g><path d="M596.129,620.533c-16.271,-16.266 -42.654,-16.266 -58.929,0l-83.333,83.334c-16.271,16.271 -16.271,42.654 -0,58.929c16.279,16.275 42.658,16.271 58.929,-0l83.333,-83.333c16.271,-16.271 16.271,-42.655 0,-58.93Z" style="fill:#f6f6f8;fill-rule:nonzero;"/></g></g><g><g><path d="M1387.8,453.867c-16.271,-16.267 -42.654,-16.267 -58.929,-0l-83.334,83.333c-16.27,16.271 -16.27,42.654 0,58.929c16.28,16.275 42.659,16.271 58.93,0l83.333,-83.333c16.271,-16.271 16.271,-42.654 -0,-58.929Z" style="fill:#f6f6f8;fill-rule:nonzero;"/></g></g><g><g><path d="M887.796,453.867c-16.271,-16.267 -42.654,-16.267 -58.929,-0l-83.334,83.333c-16.271,16.271 -16.271,42.654 0,58.929c16.279,16.275 42.659,16.271 58.929,0l83.334,-83.333c16.271,-16.271 16.271,-42.654 -0,-58.929Z" style="fill:#f6f6f8;fill-rule:nonzero;"/></g></g><g><g><path d="M1096.13,620.533c-16.271,-16.266 -42.654,-16.266 -58.929,0l-83.333,83.334c-16.271,16.271 -16.271,42.654 -0,58.929c16.279,16.275 42.658,16.271 58.929,-0l83.333,-83.333c16.271,-16.271 16.271,-42.655 0,-58.93Z" style="fill:#f6f6f8;fill-rule:nonzero;"/></g></g><g><g><path d="M2133.33,1483.33c0,-68.925 -56.075,-125 -125,-125l-41.666,0l-0,-134.291c1.716,-1.492 3.466,-2.921 5.154,-4.459c27.046,-24.654 83.537,-40.416 120.371,-40.883c23.008,-0.288 41.429,-19.179 41.137,-42.188c-0.287,-22.829 -18.883,-41.141 -41.654,-41.141c-0.175,-0 -0.358,-0 -0.533,0.004c-35.755,0.45 -83.259,9.942 -124.475,29.429l-0,-109.221c50.733,-20.762 84.462,-72.995 77.22,-130.979c-49.15,-395.037 -386.862,-692.937 -785.554,-692.937l-383.333,-0c-398.692,-0 -736.404,297.9 -785.554,692.921c-7.221,57.812 26.279,110.154 77.221,131l-0,107.379c-41.371,-18.742 -88.988,-28.117 -125.546,-27.592c-23.009,0.3 -41.417,19.2 -41.117,42.213c0.3,22.825 18.896,41.116 41.654,41.116c0.184,0 0.371,0 0.559,-0.004c37.258,-0.571 95.091,14.996 123.3,40.725c0.375,0.346 0.775,0.671 1.154,1.013l-0,137.895l-41.671,0c-69.058,0 -125,55.934 -125,125c-0,61.938 45.292,113.471 104.492,123.288c-9.738,25.704 -10.438,53.787 -1.409,80.471c51.642,152.266 194.404,254.575 355.25,254.575l1216.67,-0c160.846,-0 303.608,-102.309 355.262,-254.6c9.021,-26.659 8.321,-54.729 -1.412,-80.429c58.083,-9.55 104.483,-60.096 104.483,-123.305Zm-1961.2,-588.441c43.975,-353.396 346.138,-619.892 702.863,-619.892l383.333,0c356.725,0 658.888,266.496 702.863,619.913c3.008,24.079 -15.779,45.045 -38.984,46.6c-0.275,0.016 -0.55,0.041 -0.825,0.066c-0.712,0.063 -1.425,0.088 -2.137,0.088l-1705.17,-0c-24.541,-0 -45.083,-21.609 -41.946,-46.775Zm1549.69,263.108c-91.563,-83.496 -214.592,-83.496 -306.154,0c-59.788,54.517 -134.063,54.517 -193.846,0c-91.563,-83.496 -214.592,-83.496 -306.154,0c-59.788,54.517 -134.063,54.517 -193.846,0c-91.563,-83.492 -214.592,-83.5 -306.163,0.008c-50.67,46.242 -111.375,53.58 -165.662,21.055l-0,-154.063l1633.33,0l0,156.479c-53.162,29.579 -112.304,21.392 -161.508,-23.479Zm161.508,113.846l0,86.487l-1633.33,0l-0,-87.737c22.529,7.796 45.65,11.696 68.75,11.692c53.771,-0 107.4,-21.034 153.079,-62.713c59.783,-54.517 134.063,-54.517 193.846,0c91.562,83.504 214.596,83.5 306.154,0c59.788,-54.517 134.067,-54.517 193.846,0c91.562,83.504 214.596,83.5 306.154,0c59.783,-54.521 134.063,-54.512 193.846,0c63.737,58.133 143.762,76 217.658,52.271Zm68,388.483c-40.166,118.429 -151.216,198.004 -276.333,198.004l-1216.67,0c-125.116,0 -236.166,-79.575 -276.321,-197.979c-8.645,-25.541 13.409,-52.021 40.738,-52.021l1687.83,0c27.429,0 49.342,26.605 40.75,51.996Zm57,-135.329l-1883.33,0c-22.975,0 -41.667,-18.692 -41.667,-41.667c0,-23.004 18.663,-41.666 41.667,-41.666l1883.33,-0c22.975,-0 41.667,18.691 41.667,41.666c-0,23.005 -18.663,41.667 -41.667,41.667Z" style="fill:#f6f6f8;fill-rule:nonzero;"/></g></g></svg>