<svg id="Capa_1" enable-background="new 0 0 511.996 511.996" height="512" viewBox="0 0 511.996 511.996" width="512" xmlns="http://www.w3.org/2000/svg"><path d="m467.396 365.488c-6.869 0-382.742 0-423.078 0-16.527 0-29.53 15.461-27.383 31.848 1.108 8.454 3.052 16.735 5.771 24.8 5.429 16.103 20.598 26.899 37.592 26.899h391.118c16.994 0 32.162-10.795 37.592-26.898 2.719-8.065 4.664-16.346 5.772-24.8 2.147-16.388-10.856-31.849-27.384-31.849z" fill="#ffc365"/><path d="m96.155 422.135c-2.719-8.064-4.663-16.345-5.771-24.8-2.147-16.387 10.856-31.848 27.383-31.848-36.673 0-64.092 0-73.449 0-16.527 0-29.53 15.461-27.383 31.848 1.108 8.454 3.052 16.735 5.771 24.8 5.429 16.103 20.598 26.899 37.592 26.899h73.449c-16.994 0-32.163-10.795-37.592-26.899z" fill="#ffb640"/><path d="m462.471 259.801h-133.165c6.665 0 12.119 5.607 12.119 12.461v15.514c0 6.854-5.454 12.461-12.119 12.461h133.165c6.665 0 12.119-5.607 12.119-12.461v-15.514c0-6.854-5.454-12.461-12.119-12.461z" fill="#ff636e"/><path d="m387.333 287.775v-15.514c0-6.854 5.454-12.461 12.119-12.461h-70.146c6.666 0 12.119 5.607 12.119 12.461v15.514c0 6.854-5.454 12.461-12.119 12.461h70.146c-6.666 0-12.119-5.607-12.119-12.461z" fill="#ff4654"/><path d="m332.306 259.801h-159.168c-6.666 0-12.119 5.607-12.119 12.461v15.514c0 6.854 5.454 12.461 12.119 12.461h159.168c6.665 0 12.119-5.607 12.119-12.461v-15.514c.001-6.854-5.453-12.461-12.119-12.461z" fill="#ff636e"/><path d="m234.468 287.775v-15.514c0-6.854 5.454-12.461 12.119-12.461h-73.449c-6.666 0-12.119 5.607-12.119 12.461v15.514c0 6.854 5.454 12.461 12.119 12.461h73.449c-6.665 0-12.119-5.607-12.119-12.461z" fill="#ff4654"/><path d="m164.019 287.775v-15.514c0-6.854 5.454-12.461 12.119-12.461h-133.165c-6.666 0-12.119 5.607-12.119 12.461v15.514c0 6.854 5.454 12.461 12.119 12.461h133.165c-6.666 0-12.119-5.607-12.119-12.461z" fill="#ff636e"/><path d="m104.304 287.775v-15.514c0-6.854 5.454-12.461 12.119-12.461h-73.449c-6.666 0-12.119 5.607-12.119 12.461v15.514c0 6.854 5.454 12.461 12.119 12.461h73.449c-6.666 0-12.119-5.607-12.119-12.461z" fill="#ff4654"/><path d="m471.388 299.127h-71.44c-51.405 4.924-93.958 39.62-120.295 67.361h191.734c12.993 0 23.624-10.631 23.624-23.624v-20.112c.001-12.994-10.63-23.625-23.623-23.625z" fill="#a15427"/><path d="m105.496 299.127h-65.17c-12.993 0-23.624 10.631-23.624 23.624v20.112c0 12.993 10.631 23.624 23.624 23.624h186.152c-51.984-52.031-120.982-67.36-120.982-67.36z" fill="#a15427"/><path d="m90.152 342.863v-20.112c0-11.08 7.732-20.436 18.066-22.953-1.761-.457-2.721-.671-2.721-.671h-65.17c-12.993 0-23.624 10.631-23.624 23.624v20.112c0 12.993 10.631 23.624 23.624 23.624h73.449c-12.994.001-23.624-10.63-23.624-23.624z" fill="#924d24"/><path d="m103.496 299.127s79.402 17.632 132.025 79.297c9.25 10.84 25.995 10.92 35.268.1 24.462-28.544 71.945-73.725 131.159-79.397z" fill="#ffe02f"/><path d="m103.496 299.127s79.402 17.632 132.024 79.297c9.25 10.84 25.996 10.92 35.269.1 24.462-28.544 71.945-73.725 131.159-79.397z" fill="#ffe02f"/><path d="m279.555 363.053c-27.164-31.832-61.463-51.93-88.293-63.926h-87.765s79.402 17.632 132.024 79.297c9.25 10.84 25.996 10.92 35.269.1 3.405-3.972 7.256-8.268 11.522-12.733-.976-.82-1.899-1.732-2.757-2.738z" fill="#fbc700"/><path d="m504.113 227.657c-12.062-91.548-118.333-163.683-248.255-163.683-129.878 0-236.195 72.107-248.256 163.682-2.247 17.062 11.234 33.144 28.443 33.144h439.625c17.209.001 30.69-16.082 28.443-33.143z" fill="#ffc365"/><path d="m81.051 227.656c10.902-82.775 98.819-149.638 211.534-161.725-11.983-1.285-24.245-1.957-36.727-1.957-129.878 0-236.195 72.107-248.256 163.682-2.248 17.062 11.233 33.144 28.442 33.144h73.449c-17.209 0-30.689-16.082-28.442-33.144z" fill="#ffb640"/><path d="m105.217 110.843 10.429 14.992c2.41 3.464 7.535 3.464 9.945 0l10.429-14.992c5.525-7.943 3.887-17.753-1.96-23.813-11.262 4.59-21.979 9.799-32.071 15.558.374 2.821 1.409 5.639 3.228 8.255z" fill="#fcd79b"/><path d="m208.688 81.366c-15.154 0-24.056 17.037-15.402 29.477l10.43 14.992c2.41 3.464 7.535 3.464 9.945 0l10.43-14.992c8.653-12.44-.248-29.477-15.403-29.477z" fill="#fee6c1"/><path d="m296.756 81.366c-15.154 0-24.056 17.037-15.402 29.477l10.43 14.992c2.41 3.464 7.535 3.464 9.945 0l10.43-14.992c8.654-12.44-.248-29.477-15.403-29.477z" fill="#fee6c1"/><path d="m164.654 192.44c-15.154 0-24.056-17.037-15.402-29.477l10.43-14.992c2.41-3.464 7.535-3.464 9.945 0l10.429 14.992c8.654 12.44-.248 29.477-15.402 29.477z" fill="#fee6c1"/><path d="m252.722 192.44c-15.154 0-24.056-17.037-15.402-29.477l10.43-14.992c2.41-3.464 7.535-3.464 9.945 0l10.43 14.992c8.653 12.44-.248 29.477-15.403 29.477z" fill="#fee6c1"/><path d="m340.791 192.44c-15.154 0-24.056-17.037-15.402-29.477l10.43-14.992c2.41-3.464 7.535-3.464 9.945 0l10.43 14.992c8.653 12.44-.249 29.477-15.403 29.477z" fill="#fee6c1"/><path d="m379.852 125.835c2.41 3.464 7.535 3.464 9.945 0l10.43-14.992c2.553-3.67 3.568-7.738 3.355-11.653-9.591-5.134-19.701-9.786-30.274-13.897-7.363 5.767-9.977 16.793-3.885 25.549z" fill="#fee6c1"/><g fill="#fcd79b"><path d="m215.308 110.843c-6.231-8.956-3.36-20.294 4.391-25.943-3.015-2.197-6.767-3.534-11.011-3.534-15.154 0-24.056 17.037-15.402 29.477l10.429 14.992c2.41 3.464 7.535 3.464 9.945 0l6.038-8.68z"/><path d="m303.376 110.843c-6.23-8.956-3.36-20.294 4.391-25.943-3.015-2.197-6.767-3.534-11.011-3.534-15.154 0-24.056 17.037-15.402 29.477l10.43 14.992c2.41 3.464 7.535 3.464 9.945 0l6.038-8.68z"/><path d="m171.274 162.963 4.391-6.312-6.038-8.68c-2.41-3.464-7.535-3.464-9.945 0l-10.429 14.992c-8.654 12.44.248 29.477 15.402 29.477 4.244 0 7.996-1.337 11.011-3.534-7.752-5.649-10.623-16.987-4.392-25.943z"/><path d="m259.342 162.963 4.391-6.312-6.039-8.68c-2.41-3.464-7.535-3.464-9.945 0l-10.43 14.992c-8.654 12.44.248 29.477 15.402 29.477 4.244 0 7.996-1.337 11.011-3.534-7.75-5.649-10.62-16.987-4.39-25.943z"/><path d="m347.411 162.963 4.391-6.312-6.038-8.68c-2.41-3.464-7.535-3.464-9.945 0l-10.429 14.992c-8.654 12.44.248 29.477 15.402 29.477 4.244 0 7.996-1.337 11.011-3.534-7.753-5.649-10.623-16.987-4.392-25.943z"/><path d="m391.445 110.843c-4.112-5.91-4.246-12.849-1.642-18.512-5.365-2.49-10.859-4.846-16.495-7.037-7.363 5.767-9.977 16.793-3.885 25.549l10.429 14.992c2.41 3.464 7.535 3.464 9.945 0l6.039-8.68z"/></g><path d="m511.688 226.171c-12.721-96.554-123.451-170.203-255.69-170.203-132.139 0-242.97 73.604-255.691 170.202-2.239 16.997 7.976 33.231 24.324 38.729-.722 2.042-1.135 4.228-1.135 6.514v15.088c0 3.044.717 5.917 1.959 8.49-9.597 5.307-16.112 15.532-16.112 27.254v20.112c0 10.027 4.771 18.957 12.157 24.652-1.242 1.068-2.422 2.219-3.517 3.466-6.595 7.515-9.636 17.476-8.345 27.328 1.155 8.82 3.208 17.643 6.101 26.222 6.454 19.141 24.417 32.002 44.698 32.002h178.06c4.143 0 7.5-3.358 7.5-7.5s-3.357-7.5-7.5-7.5h-178.06c-13.839 0-26.089-8.759-30.484-21.794-2.582-7.657-4.412-15.522-5.441-23.378-.741-5.654.944-11.153 4.746-15.486 3.842-4.377 9.382-6.888 15.2-6.888h177.012c3.117 3.212 6.058 6.461 8.486 9.305 5.851 6.856 14.372 10.794 23.379 10.804h.033c16.421 0 22.909-10.69 31.63-20.065.014-.015.027-.029.041-.044h182.497c5.819 0 11.36 2.51 15.201 6.888 3.802 4.333 5.487 9.833 4.746 15.486-1.03 7.858-2.861 15.724-5.442 23.378-4.396 13.036-16.646 21.794-30.485 21.794h-178.059c-4.143 0-7.5 3.358-7.5 7.5s3.357 7.5 7.5 7.5h178.059c20.281 0 38.244-12.86 44.698-32.001 2.893-8.576 4.945-17.398 6.103-26.222 1.291-9.854-1.75-19.815-8.345-27.33-1.096-1.25-2.28-2.402-3.524-3.472 4.793-3.695 8.539-8.779 10.562-14.821 1.314-3.928-.804-8.178-4.731-9.493-3.931-1.313-8.178.804-9.493 4.732-2.214 6.616-8.361 11.061-15.296 11.061-7.79 0-163.707 0-171.503 0 28.514-26.557 63.835-48.564 102.459-52.361h69.045c6.935 0 13.081 4.445 15.296 11.061 1.315 3.928 5.562 6.047 9.493 4.732 3.928-1.315 6.046-5.565 4.731-9.493-3.195-9.544-10.655-16.741-19.826-19.752.645-1.942 1.008-4.011 1.008-6.167v-15.088c0-1.758-.254-3.454-.69-5.077 19.288-3.087 32.681-20.921 30.145-40.165zm-126.723-106.827-9.244-13.29c-2.963-4.259-2.462-8.96-.304-12.399 7.145 2.925 14.32 6.241 20.321 9.319-.342 1.076-.853 2.111-1.527 3.08zm-166.154-24.937c1.979 3.787 1.703 8.141-.736 11.647l-9.246 13.29-9.245-13.29c-2.439-3.507-2.715-7.862-.736-11.648 4.221-8.08 15.745-8.07 19.963.001zm-88.805 11.647-9.246 13.29c-.243-.349-9.31-13.371-9.537-13.728 6.814-3.669 13.943-7.084 20.138-9.759 1.112 3.058 1.031 6.766-1.355 10.197zm199.44 160.741c2.504 0 4.619 2.115 4.619 4.619v15.088c0 2.504-2.115 4.619-4.619 4.619h-153.168c-2.504 0-4.619-2.115-4.619-4.619v-15.088c0-2.504 2.115-4.619 4.619-4.619zm-64.211 106.343c-2.901 3.384-7.193 5.453-11.867 5.453-.006 0-.012 0-.017 0-4.797-.005-9.184-2.258-11.985-5.541-28.893-33.858-65.186-54.747-93.041-66.929h200.706c-32.116 15.276-60.955 40.36-83.796 67.017zm-108.576-101.724v15.088c0 1.354.177 3.081.549 4.619-10.716 0-101.575 0-114.094 0-2.504 0-4.619-2.115-4.619-4.619v-15.088c0-2.504 2.115-4.619 4.619-4.619h114.094c-.371 1.535-.549 3.29-.549 4.619zm-116.192 87.068c-8.891 0-16.124-7.233-16.124-16.124v-20.112c0-8.891 7.233-16.125 16.124-16.125h62.29c.684.163 1.5.381 2.144.55 12.004 3.19 59.132 17.318 100.391 51.811-8.48 0-156.323 0-164.825 0zm308.05-67.361c.371-1.536.549-3.29.549-4.619v-15.088c0-1.354-.177-3.081-.549-4.619h114.095c2.504 0 4.619 2.115 4.619 4.619v15.088c0 2.504-2.115 4.619-4.619 4.619-17.308 0-101.068 0-114.095 0zm127.294-39.326c-21.302 0-418.242 0-439.626 0-12.454 0-22.694-10.858-21.007-23.665 6.441-48.9 40.498-88.626 83.058-115.005.305.505.623 1.005.964 1.495h.001l10.43 14.992c5.389 7.746 16.87 7.745 22.258 0l10.431-14.993c5.152-7.406 6.06-16.452 2.995-24.365 16.376-6.075 33.657-10.776 51.534-14.014-13.915 7.123-18.804 25.117-9.579 38.379l10.43 14.992c5.389 7.746 16.87 7.745 22.258 0l10.43-14.992c11.073-15.914 1.643-37.799-17.279-40.899 26.816-3.463 54.888-3.751 83.124-.338-20.902.522-32.815 24.101-20.894 41.237l10.43 14.992c5.389 7.746 16.87 7.745 22.258 0l10.43-14.992c10.235-14.711 3.025-34.988-13.915-40.119 19.676 2.891 38.721 7.531 56.736 13.808-3.933 8.275-3.422 18.331 2.129 26.311l10.429 14.992h.001c5.389 7.746 16.87 7.745 22.258 0l10.431-14.993c.972-1.398 1.781-2.868 2.458-4.381 44.447 26.154 81.114 66.878 87.834 117.892 1.688 12.818-8.564 23.666-21.007 23.666zm-178.915-163.435c4.272 0 8.004 2.26 9.982 6.047 1.979 3.786 1.703 8.14-.736 11.647l-9.246 13.29-9.245-13.29c-5.205-7.483.138-17.694 9.245-17.694z"/><path d="m175.923 143.181c-5.389-7.746-16.87-7.745-22.258 0l-10.431 14.993c-5.604 8.056-6.261 18.463-1.717 27.16 9.817 18.785 36.744 18.775 46.553-.001 4.545-8.697 3.887-19.104-1.718-27.16zm-1.147 35.206c-4.223 8.08-15.746 8.071-19.964 0-1.979-3.787-1.703-8.141.735-11.647l9.246-13.29 9.246 13.29c2.44 3.506 2.716 7.86.737 11.647z"/><path d="m263.991 143.181c-5.389-7.746-16.87-7.745-22.258 0l-10.431 14.993c-5.604 8.056-6.261 18.463-1.717 27.16 9.817 18.785 36.743 18.774 46.554 0 4.544-8.698 3.886-19.104-1.719-27.16zm-1.146 35.206c-4.22 8.077-15.745 8.074-19.964 0-1.979-3.787-1.703-8.141.735-11.647l9.246-13.29 9.246 13.29c2.44 3.507 2.715 7.861.737 11.647z"/><path d="m352.06 143.181c-5.388-7.745-16.868-7.746-22.259 0l-10.428 14.992c-5.604 8.056-6.263 18.463-1.719 27.16 9.817 18.786 36.743 18.775 46.554 0 4.544-8.698 3.886-19.104-1.719-27.16zm-1.147 35.206c-4.22 8.077-15.745 8.074-19.964 0-1.979-3.787-1.703-8.141.737-11.648l9.244-13.29 9.246 13.29c2.44 3.508 2.716 7.862.737 11.648z"/></svg>