<svg xmlns="http://www.w3.org/2000/svg" width="447.721" height="90.575" viewBox="0 0 447.721 90.575">
  <g id="Group_7820" data-name="Group 7820" transform="translate(956 -2388)">
    <path id="Path_14028" data-name="Path 14028" d="M402.434,0H45.287A45.42,45.42,0,0,1,0-45.288,45.419,45.419,0,0,1,45.287-90.575H402.434a45.446,45.446,0,0,1,45.048,40.631,45.356,45.356,0,0,1,.239,4.656A45.42,45.42,0,0,1,402.434,0" transform="translate(-956 2478.574)" fill="#6c2c14"/>
    <g id="Group_7817" data-name="Group 7817" transform="translate(21.606 118.441)">
      <path id="Path_13982" data-name="Path 13982" d="M193.179-37.584c11.507.975,23.894-2.822,37.246-3.386,2.831-.12,5.736.25,7.611,2.018a4.8,4.8,0,0,0,2.6,1.368c3.815.513,9.887-1.418,12.823-2.6,10.779-4.324,25.014-3.259,41.462-.908,10.536,1.507,21.665-.673,29.449-6.767,4.786-3.747,9.715-1.655,10.64,4.349.526,3.428,4.206,5.921,8.364,5.921h0a3.7,3.7,0,0,0,3.975-3.43c-.036-4.827,5.144-3.469,13.341.835,14.474,7.6,23.262-4.792,31.8-2.256,12.215,3.631,31.246-5.381,27.18-17.6-3.957-11.9-7.865-17.04-21.052-19.882,0,0-21.474-1.524-27.677,1.488-8.372,4.066-10.372,7.533-14.907,3.172a14.6,14.6,0,0,0-11.841-3.6c-30.016,3.789-62.148-5.434-96.871-2.133-24.419,2.32-40.19,2.446-61.431-.438-25.949-3.523-51.824,1.747-77.918.676a43.119,43.119,0,0,0-21.336,5.073c-1.769.9-3.308.9-4.576-.19-2.86-2.459-8.1-5.384-12.129-6.1-14.153-2.51-25.191-2.309-40.142.82C18.181-78.721,10.075-69.99,10.075-60.037c0,2.818,1.626,6.214,3.545,9.24,2.264,3.567,8.13,4.392,11.472,1.469,5.962-5.215,11.773-4.157,12.708,3.081.321,2.471,3.8,3.667,6.016,1.994,4.482-3.39,8.143-3.609,10.79.093,3.181,4.45,9.337,6.861,15.548,6.482,5.637-.343,11.57-1.207,14.208-3.224,17.37-13.289,17.986-5.775,27.567.542,2.82,1.859,8.871,2.6,14.609,2.853,6.024.266,11.476-3.065,12.966-7.926,1.783-5.813,9.672-4.313,21.92,2.41a8.6,8.6,0,0,0,10.577-2c2.345-2.911,5.179-1.254,8.943,2.475,2.186,2.168,8.851,4.673,12.237,4.96" transform="translate(-968.898 2375.405)" fill="#b55827"/>
      <path id="Path_13983" data-name="Path 13983" d="M30.519-69.81A2.707,2.707,0,0,1,27.812-67.1a2.706,2.706,0,0,1-2.706-2.707,2.706,2.706,0,0,1,2.706-2.706,2.706,2.706,0,0,1,2.707,2.706" transform="translate(-971.938 2373.145)" fill="#fbf6b8"/>
      <path id="Path_13984" data-name="Path 13984" d="M66.61-58.21a3.788,3.788,0,0,1-3.788,3.789,3.789,3.789,0,0,1-3.789-3.789A3.788,3.788,0,0,1,62.821-62,3.788,3.788,0,0,1,66.61-58.21" transform="translate(-978.8 2371.017)" fill="#fbf6b8"/>
      <path id="Path_13985" data-name="Path 13985" d="M73.9-36.373a1.961,1.961,0,0,1-1.962,1.962,1.961,1.961,0,0,1-1.962-1.962,1.963,1.963,0,0,1,1.962-1.962A1.962,1.962,0,0,1,73.9-36.373" transform="translate(-981.014 2366.231)" fill="#fbf6b8"/>
      <path id="Path_13986" data-name="Path 13986" d="M108.994-71.03a2.165,2.165,0,0,1-2.165,2.165,2.165,2.165,0,0,1-2.165-2.165,2.164,2.164,0,0,1,2.165-2.164,2.164,2.164,0,0,1,2.165,2.164" transform="translate(-972.511 2373.282)" fill="#fbf6b8"/>
      <path id="Path_13987" data-name="Path 13987" d="M155.74-54.611a2.977,2.977,0,0,1-2.976,2.977,2.978,2.978,0,0,1-2.978-2.977,2.978,2.978,0,0,1,2.978-2.977,2.977,2.977,0,0,1,2.976,2.977" transform="translate(-974.123 2370.125)" fill="#fbf6b8"/>
      <path id="Path_13988" data-name="Path 13988" d="M344.771-61.2a4.872,4.872,0,0,1-4.872,4.872,4.871,4.871,0,0,1-4.871-4.872,4.87,4.87,0,0,1,4.871-4.871,4.871,4.871,0,0,1,4.872,4.871" transform="translate(-980.437 2371.841)" fill="#fbf6b8"/>
      <path id="Path_13989" data-name="Path 13989" d="M322.638-66.586A2.037,2.037,0,0,1,320.6-64.55a2.036,2.036,0,0,1-2.037-2.037,2.036,2.036,0,0,1,2.037-2.037,2.037,2.037,0,0,1,2.037,2.037" transform="translate(-980.718 2372.357)" fill="#fbf6b8"/>
      <path id="Path_13990" data-name="Path 13990" d="M292.062-39.716a2.436,2.436,0,0,1-2.436,2.436,2.436,2.436,0,0,1-2.436-2.436,2.436,2.436,0,0,1,2.436-2.435,2.436,2.436,0,0,1,2.436,2.435" transform="translate(-979.408 2367.003)" fill="#fbf6b8"/>
      <path id="Path_13991" data-name="Path 13991" d="M364.705-44.629a2.413,2.413,0,0,1-2.413,2.413,2.413,2.413,0,0,1-2.413-2.413,2.413,2.413,0,0,1,2.413-2.413,2.413,2.413,0,0,1,2.413,2.413" transform="translate(-970.422 2367.992)" fill="#fbf6b8"/>
      <path id="Path_13992" data-name="Path 13992" d="M393.994-66.739a2.64,2.64,0,0,1-2.64,2.639,2.639,2.639,0,0,1-2.639-2.639,2.64,2.64,0,0,1,2.639-2.64,2.64,2.64,0,0,1,2.64,2.64" transform="translate(-976.254 2372.51)" fill="#fbf6b8"/>
      <path id="Path_13993" data-name="Path 13993" d="M201.165-65.187a3.305,3.305,0,0,1-3.305,3.306,3.306,3.306,0,0,1-3.306-3.306,3.306,3.306,0,0,1,3.306-3.306,3.305,3.305,0,0,1,3.305,3.306" transform="translate(-975.737 2372.331)" fill="#fbf6b8"/>
      <path id="Path_13994" data-name="Path 13994" d="M44.424-52.17a3.382,3.382,0,0,1-3.382,3.383,3.382,3.382,0,0,1-3.383-3.383,3.382,3.382,0,0,1,3.383-3.382,3.382,3.382,0,0,1,3.382,3.382" transform="translate(-974.477 2369.714)" fill="#6c2c14"/>
      <path id="Path_13995" data-name="Path 13995" d="M95.449-52.273a3.79,3.79,0,0,1-3.789,3.789,3.79,3.79,0,0,1-3.789-3.789,3.79,3.79,0,0,1,3.789-3.789,3.79,3.79,0,0,1,3.789,3.789" transform="translate(-971.745 2369.817)" fill="#6c2c14"/>
      <path id="Path_13996" data-name="Path 13996" d="M127.233-49.958a6.147,6.147,0,0,1-6.146,6.146,6.147,6.147,0,0,1-6.147-6.146,6.147,6.147,0,0,1,6.147-6.147,6.147,6.147,0,0,1,6.146,6.147" transform="translate(-972.486 2369.825)" fill="#6c2c14"/>
      <path id="Path_13997" data-name="Path 13997" d="M270.061-52.865a3.97,3.97,0,0,1-3.97,3.97,3.969,3.969,0,0,1-3.969-3.97,3.969,3.969,0,0,1,3.969-3.97,3.97,3.97,0,0,1,3.97,3.97" transform="translate(-978.076 2369.973)" fill="#6c2c14"/>
      <path id="Path_13998" data-name="Path 13998" d="M317.014-54.787a3.669,3.669,0,0,1-3.669,3.669,3.669,3.669,0,0,1-3.669-3.669,3.669,3.669,0,0,1,3.669-3.669,3.669,3.669,0,0,1,3.669,3.669" transform="translate(-979.897 2370.301)" fill="#6c2c14"/>
      <path id="Path_13999" data-name="Path 13999" d="M399.2-56.713a2.571,2.571,0,0,1-2.571,2.571,2.571,2.571,0,0,1-2.571-2.571,2.571,2.571,0,0,1,2.571-2.571,2.571,2.571,0,0,1,2.571,2.571" transform="translate(-977.335 2370.468)" fill="#6c2c14"/>
      <path id="Path_14000" data-name="Path 14000" d="M407.156-46.394a4.363,4.363,0,0,1-4.364,4.364,4.363,4.363,0,0,1-4.362-4.364,4.363,4.363,0,0,1,4.362-4.364,4.363,4.363,0,0,1,4.364,4.364" transform="translate(-978.219 2368.744)" fill="#6c2c14"/>
      <path id="Path_14001" data-name="Path 14001" d="M229.1-58.821a5.308,5.308,0,0,1-5.307,5.308,5.307,5.307,0,0,1-5.307-5.308,5.307,5.307,0,0,1,5.307-5.307,5.307,5.307,0,0,1,5.307,5.307" transform="translate(-976.207 2371.448)" fill="#6c2c14"/>
    </g>
  </g>
</svg>
